<?xml version="1.0" encoding="UTF-8" standalone="no"?>
<svg width="440px" height="72px" viewBox="0 0 440 72" version="1.1" xmlns="http://www.w3.org/2000/svg" xmlns:xlink="http://www.w3.org/1999/xlink">
    <!-- Generator: Sketch 41 (35326) - http://www.bohemiancoding.com/sketch -->
    <title>CTA</title>
    <desc>Created with Sketch.</desc>
    <defs>
        <rect id="path-1" x="0" y="0" width="440" height="72" rx="36"></rect>
        <mask id="mask-2" maskContentUnits="userSpaceOnUse" maskUnits="objectBoundingBox" x="0" y="0" width="440" height="72" fill="white">
            <use xlink:href="#path-1"></use>
        </mask>
    </defs>
    <g id="Page-1" stroke="none" stroke-width="1" fill="none" fill-rule="evenodd">
        <g id="Desktop_homefront-Copy-2" transform="translate(-140.000000, -2779.000000)">
            <g id="CTA" transform="translate(140.000000, 2779.000000)">
                <use id="Rectangle-2" stroke="#FFCF3A" mask="url(#mask-2)" stroke-width="4" xlink:href="#path-1"></use>
                <path d="M39.048,44.252 C42.268,44.252 44.34,42.74 44.34,39.8 C44.34,37.168 43.164,36.16 40.28,35.404 L38.88,35.04 C37.396,34.648 36.752,34.116 36.752,32.912 C36.752,31.596 37.732,30.924 39.636,30.924 C41.26,30.924 42.772,31.372 43.528,31.708 L43.528,29.636 C42.688,29.216 41.484,28.768 39.496,28.768 C35.968,28.768 34.344,30.56 34.344,33.164 C34.344,35.768 35.884,36.776 38.012,37.336 L39.412,37.7 C41.204,38.176 41.848,38.82 41.848,40.052 C41.848,41.34 40.896,42.096 38.712,42.096 C36.612,42.096 35.548,41.676 34.288,41.172 L34.288,43.216 C35.52,43.916 37.144,44.252 39.048,44.252 Z M51.06,44.28 C52.992,44.28 54.196,43.58 54.896,42.74 L55.064,42.74 L55.344,44 L57.36,44 L57.36,33.164 C57.36,30.168 55.512,28.768 52.236,28.768 C50.444,28.768 49.044,29.048 47.728,29.58 L47.728,31.428 C48.624,31.204 49.8,30.98 51.228,30.98 C53.86,30.98 54.84,31.54 54.84,33.808 L54.84,35.264 L50.948,35.712 C48.092,36.048 46.496,37.448 46.496,40.052 C46.496,42.936 48.4,44.28 51.06,44.28 Z M51.704,42.32 C50.136,42.32 49.1,41.564 49.1,39.968 C49.1,38.344 49.968,37.672 51.592,37.504 L54.84,37.168 L54.84,41.284 C54.224,41.872 52.964,42.32 51.704,42.32 Z M65.424,44 L67.944,44 L73.376,29.048 L70.912,29.048 L68.532,35.796 C67.72,38.12 66.824,42.04 66.824,42.04 L66.712,42.04 C66.712,42.04 65.816,38.12 65.032,35.796 L62.736,29.048 L59.992,29.048 L65.424,44 Z M82.196,44.28 C84.632,44.28 86.312,43.496 87.18,42.824 L87.18,40.948 C85.836,41.648 84.576,42.068 82.588,42.068 C79.564,42.068 77.828,40.836 77.772,37.28 L87.628,37.28 L87.628,35.544 C87.628,31.12 85.696,28.768 81.636,28.768 C78.248,28.768 75.168,30.952 75.168,35.88 L75.168,37.14 C75.168,41.48 77.548,44.28 82.196,44.28 Z M81.524,30.84 C83.764,30.84 84.94,32.072 84.94,35.208 L77.772,35.208 C77.856,31.708 79.844,30.84 81.524,30.84 Z M99.192,44 L101.74,44 L101.74,31.176 L105.492,31.176 L105.492,29.048 L101.74,29.048 L101.74,27.144 C101.74,25.156 102.636,24.344 104.288,24.344 C105.296,24.344 106.08,24.512 106.5,24.624 L106.5,22.804 C105.968,22.496 105.016,22.216 103.812,22.216 C101.152,22.216 99.192,23.644 99.192,26.948 L99.192,29.048 L96.616,29.048 L96.616,31.176 L99.192,31.176 L99.192,44 Z M114.172,44.28 C118.204,44.28 120.892,41.564 120.892,37.14 L120.892,35.824 C120.892,31.428 118.4,28.768 114.2,28.768 C110.14,28.768 107.452,31.512 107.452,35.908 L107.452,37.252 C107.452,41.676 109.916,44.28 114.172,44.28 Z M114.228,42.208 C111.932,42.208 110.056,41.088 110.056,37.308 L110.056,35.656 C110.056,32.632 111.54,30.868 114.144,30.868 C116.44,30.868 118.26,32.016 118.26,35.768 L118.26,37.42 C118.26,40.5 116.776,42.208 114.228,42.208 Z M124.168,44 L126.688,44 L126.688,32.436 C127.724,31.736 129.32,31.176 130.692,31.176 C130.944,31.176 131.448,31.204 131.812,31.288 L131.812,28.992 C131.672,28.936 131.28,28.88 130.888,28.88 C129.32,28.88 127.556,29.804 126.716,30.812 L126.576,30.812 L126.576,29.048 L124.168,29.048 L124.168,44 Z M147.324,44.28 C151.356,44.28 154.044,41.564 154.044,37.14 L154.044,35.824 C154.044,31.428 151.552,28.768 147.352,28.768 C143.292,28.768 140.604,31.512 140.604,35.908 L140.604,37.252 C140.604,41.676 143.068,44.28 147.324,44.28 Z M147.38,42.208 C145.084,42.208 143.208,41.088 143.208,37.308 L143.208,35.656 C143.208,32.632 144.692,30.868 147.296,30.868 C149.592,30.868 151.412,32.016 151.412,35.768 L151.412,37.42 C151.412,40.5 149.928,42.208 147.38,42.208 Z M158.552,44 L161.1,44 L161.1,31.176 L166.868,31.176 L166.868,44 L169.416,44 L169.416,31.176 L172.748,31.176 L172.748,29.048 L169.416,29.048 L169.416,27.704 C169.416,25.268 170.676,24.344 172.944,24.344 C173.896,24.344 174.568,24.428 175.184,24.596 L175.184,40.612 C175.184,43.272 176.528,44.168 178.572,44.168 C179.804,44.168 180.364,43.888 180.952,43.636 L180.952,41.844 C180.364,41.984 179.72,42.068 179.244,42.068 C178.236,42.068 177.732,41.732 177.732,40.304 L177.732,23 C176.304,22.44 174.68,22.216 172.804,22.216 C169.5,22.216 166.868,23.756 166.868,27.48 L166.868,29.048 L161.1,29.048 L161.1,27.312 C161.1,25.324 162.024,24.568 163.48,24.568 C164.432,24.568 164.936,24.652 165.328,24.764 L165.328,22.916 C164.852,22.692 164.208,22.44 163.004,22.44 C160.568,22.44 158.552,23.924 158.552,27.116 L158.552,29.048 L155.976,29.048 L155.976,31.176 L158.552,31.176 L158.552,44 Z M183.584,44 L186.104,44 L186.104,29.048 L183.584,29.048 L183.584,44 Z M183.5,26.08 L186.188,26.08 L186.188,23.448 L183.5,23.448 L183.5,26.08 Z M190.388,44 L192.908,44 L192.908,31.96 C193.972,31.484 195.484,30.98 196.772,30.98 C199.096,30.98 199.656,31.708 199.656,33.416 L199.656,44 L202.176,44 L202.176,32.884 C202.176,30 200.804,28.768 197.892,28.768 C196.1,28.768 194.168,29.468 192.936,30.336 L192.796,30.336 L192.796,29.048 L190.388,29.048 L190.388,44 Z M212.368,44.28 C214.804,44.28 216.484,43.496 217.352,42.824 L217.352,40.948 C216.008,41.648 214.748,42.068 212.76,42.068 C209.736,42.068 208,40.836 207.944,37.28 L217.8,37.28 L217.8,35.544 C217.8,31.12 215.868,28.768 211.808,28.768 C208.42,28.768 205.34,30.952 205.34,35.88 L205.34,37.14 C205.34,41.48 207.72,44.28 212.368,44.28 Z M211.696,30.84 C213.936,30.84 215.112,32.072 215.112,35.208 L207.944,35.208 C208.028,31.708 210.016,30.84 211.696,30.84 Z M228.132,44 L230.652,44 L230.652,32.436 C231.688,31.736 233.284,31.176 234.656,31.176 C234.908,31.176 235.412,31.204 235.776,31.288 L235.776,28.992 C235.636,28.936 235.244,28.88 234.852,28.88 C233.284,28.88 231.52,29.804 230.68,30.812 L230.54,30.812 L230.54,29.048 L228.132,29.048 L228.132,44 Z M244.54,44.28 C246.976,44.28 248.656,43.496 249.524,42.824 L249.524,40.948 C248.18,41.648 246.92,42.068 244.932,42.068 C241.908,42.068 240.172,40.836 240.116,37.28 L249.972,37.28 L249.972,35.544 C249.972,31.12 248.04,28.768 243.98,28.768 C240.592,28.768 237.512,30.952 237.512,35.88 L237.512,37.14 C237.512,41.48 239.892,44.28 244.54,44.28 Z M243.868,30.84 C246.108,30.84 247.284,32.072 247.284,35.208 L240.116,35.208 C240.2,31.708 242.188,30.84 243.868,30.84 Z M256.86,44.28 C258.792,44.28 259.996,43.58 260.696,42.74 L260.864,42.74 L261.144,44 L263.16,44 L263.16,33.164 C263.16,30.168 261.312,28.768 258.036,28.768 C256.244,28.768 254.844,29.048 253.528,29.58 L253.528,31.428 C254.424,31.204 255.6,30.98 257.028,30.98 C259.66,30.98 260.64,31.54 260.64,33.808 L260.64,35.264 L256.748,35.712 C253.892,36.048 252.296,37.448 252.296,40.052 C252.296,42.936 254.2,44.28 256.86,44.28 Z M257.504,42.32 C255.936,42.32 254.9,41.564 254.9,39.968 C254.9,38.344 255.768,37.672 257.392,37.504 L260.64,37.168 L260.64,41.284 C260.024,41.872 258.764,42.32 257.504,42.32 Z M272.512,44.28 C274.472,44.28 275.872,43.692 276.74,42.796 L276.88,42.796 L277.132,44 L279.26,44 L279.26,22.468 L276.74,22.468 L276.74,29.692 C275.956,29.244 274.752,28.768 272.988,28.768 C269.18,28.768 266.436,30.98 266.436,36.188 L266.436,37.42 C266.436,42.656 269.684,44.28 272.512,44.28 Z M273.324,42.208 C270.776,42.208 269.04,41.088 269.04,37.308 L269.04,35.824 C269.04,32.212 270.636,30.952 273.296,30.952 C274.752,30.952 276.096,31.344 276.74,31.848 L276.74,41.004 C276.096,41.536 274.948,42.208 273.324,42.208 Z M283.544,44 L286.064,44 L286.064,29.048 L283.544,29.048 L283.544,44 Z M283.46,26.08 L286.148,26.08 L286.148,23.448 L283.46,23.448 L283.46,26.08 Z M290.348,44 L292.868,44 L292.868,31.96 C293.932,31.484 295.444,30.98 296.732,30.98 C299.056,30.98 299.616,31.708 299.616,33.416 L299.616,44 L302.136,44 L302.136,32.884 C302.136,30 300.764,28.768 297.852,28.768 C296.06,28.768 294.128,29.468 292.896,30.336 L292.756,30.336 L292.756,29.048 L290.348,29.048 L290.348,44 Z M311.432,49.964 C315.744,49.964 318.208,48.396 318.208,44.196 L318.208,29.048 L316.08,29.048 L315.828,29.916 L315.688,29.916 C314.904,29.384 313.7,28.768 311.936,28.768 C308.128,28.768 305.384,30.812 305.384,35.852 L305.384,37.084 C305.384,42.124 308.632,43.608 311.46,43.608 C313.42,43.608 314.68,43.048 315.548,42.208 L315.688,42.208 L315.688,43.916 C315.688,46.828 313.924,47.808 310.956,47.808 C308.968,47.808 306.952,47.22 306.224,46.912 L306.224,48.816 C307.204,49.488 309.388,49.964 311.432,49.964 Z M312.272,41.508 C309.724,41.508 307.988,40.612 307.988,36.972 L307.988,35.488 C307.988,31.988 309.584,30.98 312.244,30.98 C313.7,30.98 315.044,31.512 315.688,32.044 L315.688,40.304 C315.044,40.836 313.896,41.508 312.272,41.508 Z" id="save-for-offline-rea" fill="#333333"></path>
                <path d="M406.82266,29.181879 L402.272675,32.650049 L402.272675,21.5455414 L399.727229,21.5455414 L399.727229,32.650049 L395.177245,29.181879 L394.063612,30.2955115 L400.554499,36.8182166 L401.445405,36.8182166 L407.96811,30.2955115 L406.82266,29.181879 Z M412.454459,34.2727707 L412.454459,44.4545541 L389.545446,44.4545541 L389.545446,34.2727707 L388.272723,33.0000478 L387,33.0000478 L387,45.695459 L388.240905,47 L413.695363,47 L414.999904,45.695459 L414.999904,33.0000478 L413.727182,33.0000478 L412.454459,34.2727707 Z" id="î·" fill="#FFCF3A"></path>
            </g>
        </g>
    </g>
</svg>