<?xml version="1.0" encoding="UTF-8" standalone="no"?>
<svg width="337px" height="162px" viewBox="0 0 337 162" version="1.1" xmlns="http://www.w3.org/2000/svg" xmlns:xlink="http://www.w3.org/1999/xlink">
    <!-- Generator: Sketch 41 (35326) - http://www.bohemiancoding.com/sketch -->
    <title>A daily dose of arti</title>
    <desc>Created with Sketch.</desc>
    <defs></defs>
    <g id="Page-1" stroke="none" stroke-width="1" fill="none" fill-rule="evenodd">
        <g id="Desktop_homefront-Copy-2" transform="translate(-140.000000, -2334.000000)" fill="#333333">
            <g id="5-a-day---bottom" transform="translate(99.000000, 2145.000000)">
                <path d="M45.156,228 L52.384,228 L55.192,219.68 L67.932,219.68 L70.792,228 L78.956,228 L66.268,191.964 L57.948,191.964 L45.156,228 Z M61.38,200.752 L61.588,200.752 L66.112,214.168 L56.908,214.168 L61.38,200.752 Z M100.64,228.52 C104.124,228.52 106.62,227.532 108.388,225.868 L108.648,225.868 L109.22,228 L115.46,228 L115.46,189.572 L108.18,189.572 L108.18,201.584 C107.036,200.96 105.008,200.18 101.992,200.18 C94.816,200.18 89.668,204.34 89.668,214.48 L89.668,215.156 C89.668,224.932 95.128,228.52 100.64,228.52 Z M103.344,223.008 C99.652,223.008 97.208,221.24 97.208,214.844 L97.208,213.856 C97.208,207.512 99.548,205.536 103.396,205.536 C105.476,205.536 107.296,206.056 108.18,206.732 L108.18,221.448 C107.192,222.176 105.58,223.008 103.344,223.008 Z M127.68,228.52 C131.164,228.52 133.504,227.428 134.7,225.816 L135.012,225.816 L135.584,228 L141.616,228 L141.616,208.448 C141.616,202.572 137.716,200.232 131.268,200.232 C127.368,200.232 124.196,200.752 121.492,201.74 L121.492,206.68 C123.312,206.264 125.756,205.9 128.46,205.9 C132.776,205.9 134.336,206.628 134.336,210.008 L134.336,211.724 L128.46,212.504 C122.844,213.232 119.204,215.416 119.204,220.772 C119.204,226.024 122.74,228.52 127.68,228.52 Z M130.072,223.632 C127.888,223.632 126.328,222.644 126.328,220.148 C126.328,217.756 127.524,216.768 130.02,216.508 L134.336,216.092 L134.336,222.28 C133.504,223.06 131.788,223.632 130.072,223.632 Z M146.816,228 L154.148,228 L154.148,200.7 L146.816,200.7 L146.816,228 Z M146.764,196.748 L154.2,196.748 L154.2,190.664 L146.764,190.664 L146.764,196.748 Z M159.66,228 L166.992,228 L166.992,189.572 L159.66,189.572 L159.66,228 Z M176.248,238.348 C181.604,238.348 184.308,236.164 186.18,230.86 L196.892,200.7 L189.924,200.7 L184.048,218.692 L183.892,218.692 L177.652,200.7 L169.956,200.7 L180.2,227.428 L179.368,229.612 C178.484,231.9 176.976,232.888 174.48,232.888 C173.544,232.888 172.504,232.732 171.672,232.576 L171.672,237.516 C172.608,237.984 174.636,238.348 176.248,238.348 Z M218.628,228.52 C222.112,228.52 224.608,227.532 226.376,225.868 L226.636,225.868 L227.208,228 L233.448,228 L233.448,189.572 L226.168,189.572 L226.168,201.584 C225.024,200.96 222.996,200.18 219.98,200.18 C212.804,200.18 207.656,204.34 207.656,214.48 L207.656,215.156 C207.656,224.932 213.116,228.52 218.628,228.52 Z M221.332,223.008 C217.64,223.008 215.196,221.24 215.196,214.844 L215.196,213.856 C215.196,207.512 217.536,205.536 221.384,205.536 C223.464,205.536 225.284,206.056 226.168,206.732 L226.168,221.448 C225.18,222.176 223.568,223.008 221.332,223.008 Z M250.608,228.52 C258.408,228.52 264.024,223.684 264.024,214.584 L264.024,213.856 C264.024,205.12 259.24,200.18 250.66,200.18 C242.912,200.18 237.296,205.068 237.296,214.116 L237.296,214.896 C237.296,223.528 242.028,228.52 250.608,228.52 Z M250.712,223.268 C247.384,223.268 244.784,221.552 244.784,214.844 L244.784,213.648 C244.784,207.876 246.916,205.484 250.556,205.484 C253.936,205.484 256.484,207.096 256.484,213.908 L256.484,215.104 C256.484,220.876 254.352,223.268 250.712,223.268 Z M275.776,228.52 C283.056,228.52 286.852,225.504 286.852,219.784 C286.852,215 284.824,212.556 279.364,211.516 L276.816,210.996 C274.372,210.528 273.384,209.956 273.384,208.24 C273.384,206.42 274.84,205.536 277.856,205.536 C281.028,205.536 283.628,206.264 285.24,206.836 L285.24,201.688 C283.368,200.856 280.872,200.232 277.076,200.232 C269.9,200.232 266.52,203.508 266.52,208.708 C266.52,213.804 269.224,216.04 273.592,216.872 L276.14,217.34 C278.844,217.912 279.78,218.588 279.78,220.304 C279.78,222.124 278.324,223.164 274.736,223.164 C270.94,223.164 268.808,222.384 266.572,221.5 L266.572,226.648 C268.808,227.792 272.188,228.52 275.776,228.52 Z M303.18,228.52 C308.016,228.52 311.292,227.22 313.164,225.972 L313.164,221.24 C310.928,222.28 308.276,223.06 304.896,223.06 C299.956,223.06 297.252,221.448 296.732,216.3 L314.152,216.3 L314.152,213.804 C314.152,205.016 310.668,200.232 302.192,200.232 C294.704,200.232 289.296,205.068 289.296,213.96 L289.296,214.688 C289.296,223.476 293.924,228.52 303.18,228.52 Z M302.088,205.328 C305.312,205.328 306.976,207.044 306.976,211.724 L296.732,211.724 C297.148,206.68 299.644,205.328 302.088,205.328 Z M339.164,228.52 C346.964,228.52 352.58,223.684 352.58,214.584 L352.58,213.856 C352.58,205.12 347.796,200.18 339.216,200.18 C331.468,200.18 325.852,205.068 325.852,214.116 L325.852,214.896 C325.852,223.528 330.584,228.52 339.164,228.52 Z M339.268,223.268 C335.94,223.268 333.34,221.552 333.34,214.844 L333.34,213.648 C333.34,207.876 335.472,205.484 339.112,205.484 C342.492,205.484 345.04,207.096 345.04,213.908 L345.04,215.104 C345.04,220.876 342.908,223.268 339.268,223.268 Z M358.144,228 L365.476,228 L365.476,206.108 L371.196,206.108 L371.196,200.7 L365.476,200.7 L365.476,198.36 C365.476,195.552 366.88,194.304 369.584,194.304 C370.988,194.304 372.184,194.512 372.912,194.668 L372.912,189.988 C371.924,189.572 370,189.104 367.4,189.104 C361.992,189.104 358.144,191.704 358.144,197.58 L358.144,200.7 L354.504,200.7 L354.504,206.108 L358.144,206.108 L358.144,228 Z M54.62,284.52 C58.104,284.52 60.444,283.428 61.64,281.816 L61.952,281.816 L62.524,284 L68.556,284 L68.556,264.448 C68.556,258.572 64.656,256.232 58.208,256.232 C54.308,256.232 51.136,256.752 48.432,257.74 L48.432,262.68 C50.252,262.264 52.696,261.9 55.4,261.9 C59.716,261.9 61.276,262.628 61.276,266.008 L61.276,267.724 L55.4,268.504 C49.784,269.232 46.144,271.416 46.144,276.772 C46.144,282.024 49.68,284.52 54.62,284.52 Z M57.012,279.632 C54.828,279.632 53.268,278.644 53.268,276.148 C53.268,273.756 54.464,272.768 56.96,272.508 L61.276,272.092 L61.276,278.28 C60.444,279.06 58.728,279.632 57.012,279.632 Z M73.6,284 L80.932,284 L80.932,264.448 C82.596,263.512 84.884,262.888 87.328,262.888 C87.952,262.888 88.94,262.992 89.564,263.096 L89.564,256.648 C89.252,256.492 88.628,256.44 87.9,256.44 C85.04,256.44 82.388,257.896 80.932,259.924 L80.672,259.924 L80.672,256.7 L73.6,256.7 L73.6,284 Z M102.72,284.364 C105.424,284.364 107.14,283.792 108.232,283.22 L108.232,278.488 C107.348,278.696 106.204,278.852 105.268,278.852 C102.72,278.852 101.836,278.124 101.836,275.94 L101.836,262.056 L107.92,262.056 L107.92,256.7 L101.836,256.7 L101.836,250.252 L94.556,250.252 L94.556,256.7 L90.968,256.7 L90.968,262.056 L94.556,262.056 L94.556,276.98 C94.556,282.544 97.676,284.364 102.72,284.364 Z M112.132,284 L119.464,284 L119.464,256.7 L112.132,256.7 L112.132,284 Z M112.08,252.748 L119.516,252.748 L119.516,246.664 L112.08,246.664 L112.08,252.748 Z M136.78,284.52 C140.68,284.52 143.28,283.532 144.944,282.544 L144.944,277.344 C143.592,277.916 141.356,278.852 138.288,278.852 C133.348,278.852 131.06,276.408 131.06,270.584 L131.06,269.492 C131.06,264.344 133.764,261.9 138.028,261.9 C141.148,261.9 142.656,262.42 144.684,263.252 L144.684,257.792 C142.968,256.804 140.784,256.18 137.144,256.18 C129.032,256.18 123.468,260.756 123.468,270.168 L123.468,270.896 C123.468,279.892 128.304,284.52 136.78,284.52 Z M148.792,284 L156.124,284 L156.124,245.572 L148.792,245.572 L148.792,284 Z M174.012,284.52 C178.848,284.52 182.124,283.22 183.996,281.972 L183.996,277.24 C181.76,278.28 179.108,279.06 175.728,279.06 C170.788,279.06 168.084,277.448 167.564,272.3 L184.984,272.3 L184.984,269.804 C184.984,261.016 181.5,256.232 173.024,256.232 C165.536,256.232 160.128,261.068 160.128,269.96 L160.128,270.688 C160.128,279.476 164.756,284.52 174.012,284.52 Z M172.92,261.328 C176.144,261.328 177.808,263.044 177.808,267.724 L167.564,267.724 C167.98,262.68 170.476,261.328 172.92,261.328 Z M196.736,284.52 C204.016,284.52 207.812,281.504 207.812,275.784 C207.812,271 205.784,268.556 200.324,267.516 L197.776,266.996 C195.332,266.528 194.344,265.956 194.344,264.24 C194.344,262.42 195.8,261.536 198.816,261.536 C201.988,261.536 204.588,262.264 206.2,262.836 L206.2,257.688 C204.328,256.856 201.832,256.232 198.036,256.232 C190.86,256.232 187.48,259.508 187.48,264.708 C187.48,269.804 190.184,272.04 194.552,272.872 L197.1,273.34 C199.804,273.912 200.74,274.588 200.74,276.304 C200.74,278.124 199.284,279.164 195.696,279.164 C191.9,279.164 189.768,278.384 187.532,277.5 L187.532,282.648 C189.768,283.792 193.148,284.52 196.736,284.52 Z M232.772,284.52 C236.672,284.52 239.272,283.532 240.936,282.544 L240.936,277.344 C239.584,277.916 237.348,278.852 234.28,278.852 C229.34,278.852 227.052,276.408 227.052,270.584 L227.052,269.492 C227.052,264.344 229.756,261.9 234.02,261.9 C237.14,261.9 238.648,262.42 240.676,263.252 L240.676,257.792 C238.96,256.804 236.776,256.18 233.136,256.18 C225.024,256.18 219.46,260.756 219.46,270.168 L219.46,270.896 C219.46,279.892 224.296,284.52 232.772,284.52 Z M244.628,284 L251.96,284 L251.96,263.304 C253.416,262.68 255.496,262.056 257.316,262.056 C260.54,262.056 261.476,263.044 261.476,265.592 L261.476,284 L268.808,284 L268.808,263.72 C268.808,258.364 266,256.18 260.8,256.18 C257.368,256.18 254.352,257.324 252.22,258.936 L251.96,258.936 L251.96,245.572 L244.628,245.572 L244.628,284 Z M285.812,284.52 C293.612,284.52 299.228,279.684 299.228,270.584 L299.228,269.856 C299.228,261.12 294.444,256.18 285.864,256.18 C278.116,256.18 272.5,261.068 272.5,270.116 L272.5,270.896 C272.5,279.528 277.232,284.52 285.812,284.52 Z M285.916,279.268 C282.588,279.268 279.988,277.552 279.988,270.844 L279.988,269.648 C279.988,263.876 282.12,261.484 285.76,261.484 C289.14,261.484 291.688,263.096 291.688,269.908 L291.688,271.104 C291.688,276.876 289.556,279.268 285.916,279.268 Z M310.98,284.52 C318.26,284.52 322.056,281.504 322.056,275.784 C322.056,271 320.028,268.556 314.568,267.516 L312.02,266.996 C309.576,266.528 308.588,265.956 308.588,264.24 C308.588,262.42 310.044,261.536 313.06,261.536 C316.232,261.536 318.832,262.264 320.444,262.836 L320.444,257.688 C318.572,256.856 316.076,256.232 312.28,256.232 C305.104,256.232 301.724,259.508 301.724,264.708 C301.724,269.804 304.428,272.04 308.796,272.872 L311.344,273.34 C314.048,273.912 314.984,274.588 314.984,276.304 C314.984,278.124 313.528,279.164 309.94,279.164 C306.144,279.164 304.012,278.384 301.776,277.5 L301.776,282.648 C304.012,283.792 307.392,284.52 310.98,284.52 Z M338.384,284.52 C343.22,284.52 346.496,283.22 348.368,281.972 L348.368,277.24 C346.132,278.28 343.48,279.06 340.1,279.06 C335.16,279.06 332.456,277.448 331.936,272.3 L349.356,272.3 L349.356,269.804 C349.356,261.016 345.872,256.232 337.396,256.232 C329.908,256.232 324.5,261.068 324.5,269.96 L324.5,270.688 C324.5,279.476 329.128,284.52 338.384,284.52 Z M337.292,261.328 C340.516,261.328 342.18,263.044 342.18,267.724 L331.936,267.724 C332.352,262.68 334.848,261.328 337.292,261.328 Z M353.204,284 L360.536,284 L360.536,263.304 C361.992,262.68 364.072,262.056 365.892,262.056 C369.116,262.056 370.052,263.044 370.052,265.592 L370.052,284 L377.384,284 L377.384,263.72 C377.384,258.364 374.576,256.18 369.376,256.18 C365.944,256.18 362.824,257.324 360.536,259.092 L360.276,259.092 L360.276,256.7 L353.204,256.7 L353.204,284 Z M46.248,350.296 C52.592,350.296 55.088,346.864 55.088,341.924 L55.088,312.7 L47.756,312.7 L47.756,341.3 C47.756,343.848 46.404,344.94 43.96,344.94 C43.128,344.94 42.244,344.784 41.516,344.68 L41.516,349.412 C42.556,349.932 44.064,350.296 46.248,350.296 Z M47.704,308.748 L55.14,308.748 L55.14,302.664 L47.704,302.664 L47.704,308.748 Z M68.66,340.52 C72.092,340.52 74.64,339.376 76.98,337.608 L77.24,337.608 L77.812,340 L84.156,340 L84.156,312.7 L76.876,312.7 L76.876,333.396 C75.42,334.124 73.704,334.8 71.624,334.8 C68.608,334.8 67.62,333.76 67.62,331.108 L67.62,312.7 L60.34,312.7 L60.34,332.564 C60.34,338.024 63.408,340.52 68.66,340.52 Z M97.312,340.52 C104.592,340.52 108.388,337.504 108.388,331.784 C108.388,327 106.36,324.556 100.9,323.516 L98.352,322.996 C95.908,322.528 94.92,321.956 94.92,320.24 C94.92,318.42 96.376,317.536 99.392,317.536 C102.564,317.536 105.164,318.264 106.776,318.836 L106.776,313.688 C104.904,312.856 102.408,312.232 98.612,312.232 C91.436,312.232 88.056,315.508 88.056,320.708 C88.056,325.804 90.76,328.04 95.128,328.872 L97.676,329.34 C100.38,329.912 101.316,330.588 101.316,332.304 C101.316,334.124 99.86,335.164 96.272,335.164 C92.476,335.164 90.344,334.384 88.108,333.5 L88.108,338.648 C90.344,339.792 93.724,340.52 97.312,340.52 Z M122.012,340.364 C124.716,340.364 126.432,339.792 127.524,339.22 L127.524,334.488 C126.64,334.696 125.496,334.852 124.56,334.852 C122.012,334.852 121.128,334.124 121.128,331.94 L121.128,318.056 L127.212,318.056 L127.212,312.7 L121.128,312.7 L121.128,306.252 L113.848,306.252 L113.848,312.7 L110.26,312.7 L110.26,318.056 L113.848,318.056 L113.848,332.98 C113.848,338.544 116.968,340.364 122.012,340.364 Z M142.188,340 L149.52,340 L149.52,318.108 L155.24,318.108 L155.24,312.7 L149.52,312.7 L149.52,310.36 C149.52,307.552 150.924,306.304 153.628,306.304 C155.032,306.304 156.228,306.512 156.956,306.668 L156.956,301.988 C155.968,301.572 154.044,301.104 151.444,301.104 C146.036,301.104 142.188,303.704 142.188,309.58 L142.188,312.7 L138.548,312.7 L138.548,318.108 L142.188,318.108 L142.188,340 Z M170.476,340.52 C178.276,340.52 183.892,335.684 183.892,326.584 L183.892,325.856 C183.892,317.12 179.108,312.18 170.528,312.18 C162.78,312.18 157.164,317.068 157.164,326.116 L157.164,326.896 C157.164,335.528 161.896,340.52 170.476,340.52 Z M170.58,335.268 C167.252,335.268 164.652,333.552 164.652,326.844 L164.652,325.648 C164.652,319.876 166.784,317.484 170.424,317.484 C173.804,317.484 176.352,319.096 176.352,325.908 L176.352,327.104 C176.352,332.876 174.22,335.268 170.58,335.268 Z M187.74,340 L195.072,340 L195.072,320.448 C196.736,319.512 199.024,318.888 201.468,318.888 C202.092,318.888 203.08,318.992 203.704,319.096 L203.704,312.648 C203.392,312.492 202.768,312.44 202.04,312.44 C199.18,312.44 196.528,313.896 195.072,315.924 L194.812,315.924 L194.812,312.7 L187.74,312.7 L187.74,340 Z M220.136,350.348 C225.492,350.348 228.196,348.164 230.068,342.86 L240.78,312.7 L233.812,312.7 L227.936,330.692 L227.78,330.692 L221.54,312.7 L213.844,312.7 L224.088,339.428 L223.256,341.612 C222.372,343.9 220.864,344.888 218.368,344.888 C217.432,344.888 216.392,344.732 215.56,344.576 L215.56,349.516 C216.496,349.984 218.524,350.348 220.136,350.348 Z M255.548,340.52 C263.348,340.52 268.964,335.684 268.964,326.584 L268.964,325.856 C268.964,317.12 264.18,312.18 255.6,312.18 C247.852,312.18 242.236,317.068 242.236,326.116 L242.236,326.896 C242.236,335.528 246.968,340.52 255.548,340.52 Z M255.652,335.268 C252.324,335.268 249.724,333.552 249.724,326.844 L249.724,325.648 C249.724,319.876 251.856,317.484 255.496,317.484 C258.876,317.484 261.424,319.096 261.424,325.908 L261.424,327.104 C261.424,332.876 259.292,335.268 255.652,335.268 Z M281.028,340.52 C284.46,340.52 287.008,339.376 289.348,337.608 L289.608,337.608 L290.18,340 L296.524,340 L296.524,312.7 L289.244,312.7 L289.244,333.396 C287.788,334.124 286.072,334.8 283.992,334.8 C280.976,334.8 279.988,333.76 279.988,331.108 L279.988,312.7 L272.708,312.7 L272.708,332.564 C272.708,338.024 275.776,340.52 281.028,340.52 Z" id="A-daily-dose-of-arti"></path>
            </g>
        </g>
    </g>
</svg>