<?xml version="1.0" encoding="UTF-8" standalone="no"?>
<svg width="375px" height="218px" viewBox="0 0 375 218" version="1.1" xmlns="http://www.w3.org/2000/svg" xmlns:xlink="http://www.w3.org/1999/xlink">
    <!-- Generator: Sketch 41 (35326) - http://www.bohemiancoding.com/sketch -->
    <title>A daily dose of arti</title>
    <desc>Created with Sketch.</desc>
    <defs></defs>
    <g id="Page-1" stroke="none" stroke-width="1" fill="none" fill-rule="evenodd">
        <g id="Desktop_homefront-Copy-2" transform="translate(-144.000000, -2334.000000)" fill="#333333">
            <g id="5-a-day---bottom" transform="translate(99.000000, 2145.000000)">
                <path d="M45.156,228 L52.384,228 L55.192,219.68 L67.932,219.68 L70.792,228 L78.956,228 L66.268,191.964 L57.948,191.964 L45.156,228 Z M61.38,200.752 L61.588,200.752 L66.112,214.168 L56.908,214.168 L61.38,200.752 Z M100.64,228.52 C104.124,228.52 106.62,227.532 108.388,225.868 L108.648,225.868 L109.22,228 L115.46,228 L115.46,189.572 L108.18,189.572 L108.18,201.584 C107.036,200.96 105.008,200.18 101.992,200.18 C94.816,200.18 89.668,204.34 89.668,214.48 L89.668,215.156 C89.668,224.932 95.128,228.52 100.64,228.52 Z M103.344,223.008 C99.652,223.008 97.208,221.24 97.208,214.844 L97.208,213.856 C97.208,207.512 99.548,205.536 103.396,205.536 C105.476,205.536 107.296,206.056 108.18,206.732 L108.18,221.448 C107.192,222.176 105.58,223.008 103.344,223.008 Z M127.68,228.52 C131.164,228.52 133.504,227.428 134.7,225.816 L135.012,225.816 L135.584,228 L141.616,228 L141.616,208.448 C141.616,202.572 137.716,200.232 131.268,200.232 C127.368,200.232 124.196,200.752 121.492,201.74 L121.492,206.68 C123.312,206.264 125.756,205.9 128.46,205.9 C132.776,205.9 134.336,206.628 134.336,210.008 L134.336,211.724 L128.46,212.504 C122.844,213.232 119.204,215.416 119.204,220.772 C119.204,226.024 122.74,228.52 127.68,228.52 Z M130.072,223.632 C127.888,223.632 126.328,222.644 126.328,220.148 C126.328,217.756 127.524,216.768 130.02,216.508 L134.336,216.092 L134.336,222.28 C133.504,223.06 131.788,223.632 130.072,223.632 Z M146.816,228 L154.148,228 L154.148,200.7 L146.816,200.7 L146.816,228 Z M146.764,196.748 L154.2,196.748 L154.2,190.664 L146.764,190.664 L146.764,196.748 Z M159.66,228 L166.992,228 L166.992,189.572 L159.66,189.572 L159.66,228 Z M176.248,238.348 C181.604,238.348 184.308,236.164 186.18,230.86 L196.892,200.7 L189.924,200.7 L184.048,218.692 L183.892,218.692 L177.652,200.7 L169.956,200.7 L180.2,227.428 L179.368,229.612 C178.484,231.9 176.976,232.888 174.48,232.888 C173.544,232.888 172.504,232.732 171.672,232.576 L171.672,237.516 C172.608,237.984 174.636,238.348 176.248,238.348 Z M218.628,228.52 C222.112,228.52 224.608,227.532 226.376,225.868 L226.636,225.868 L227.208,228 L233.448,228 L233.448,189.572 L226.168,189.572 L226.168,201.584 C225.024,200.96 222.996,200.18 219.98,200.18 C212.804,200.18 207.656,204.34 207.656,214.48 L207.656,215.156 C207.656,224.932 213.116,228.52 218.628,228.52 Z M221.332,223.008 C217.64,223.008 215.196,221.24 215.196,214.844 L215.196,213.856 C215.196,207.512 217.536,205.536 221.384,205.536 C223.464,205.536 225.284,206.056 226.168,206.732 L226.168,221.448 C225.18,222.176 223.568,223.008 221.332,223.008 Z M250.608,228.52 C258.408,228.52 264.024,223.684 264.024,214.584 L264.024,213.856 C264.024,205.12 259.24,200.18 250.66,200.18 C242.912,200.18 237.296,205.068 237.296,214.116 L237.296,214.896 C237.296,223.528 242.028,228.52 250.608,228.52 Z M250.712,223.268 C247.384,223.268 244.784,221.552 244.784,214.844 L244.784,213.648 C244.784,207.876 246.916,205.484 250.556,205.484 C253.936,205.484 256.484,207.096 256.484,213.908 L256.484,215.104 C256.484,220.876 254.352,223.268 250.712,223.268 Z M275.776,228.52 C283.056,228.52 286.852,225.504 286.852,219.784 C286.852,215 284.824,212.556 279.364,211.516 L276.816,210.996 C274.372,210.528 273.384,209.956 273.384,208.24 C273.384,206.42 274.84,205.536 277.856,205.536 C281.028,205.536 283.628,206.264 285.24,206.836 L285.24,201.688 C283.368,200.856 280.872,200.232 277.076,200.232 C269.9,200.232 266.52,203.508 266.52,208.708 C266.52,213.804 269.224,216.04 273.592,216.872 L276.14,217.34 C278.844,217.912 279.78,218.588 279.78,220.304 C279.78,222.124 278.324,223.164 274.736,223.164 C270.94,223.164 268.808,222.384 266.572,221.5 L266.572,226.648 C268.808,227.792 272.188,228.52 275.776,228.52 Z M303.18,228.52 C308.016,228.52 311.292,227.22 313.164,225.972 L313.164,221.24 C310.928,222.28 308.276,223.06 304.896,223.06 C299.956,223.06 297.252,221.448 296.732,216.3 L314.152,216.3 L314.152,213.804 C314.152,205.016 310.668,200.232 302.192,200.232 C294.704,200.232 289.296,205.068 289.296,213.96 L289.296,214.688 C289.296,223.476 293.924,228.52 303.18,228.52 Z M302.088,205.328 C305.312,205.328 306.976,207.044 306.976,211.724 L296.732,211.724 C297.148,206.68 299.644,205.328 302.088,205.328 Z M339.164,228.52 C346.964,228.52 352.58,223.684 352.58,214.584 L352.58,213.856 C352.58,205.12 347.796,200.18 339.216,200.18 C331.468,200.18 325.852,205.068 325.852,214.116 L325.852,214.896 C325.852,223.528 330.584,228.52 339.164,228.52 Z M339.268,223.268 C335.94,223.268 333.34,221.552 333.34,214.844 L333.34,213.648 C333.34,207.876 335.472,205.484 339.112,205.484 C342.492,205.484 345.04,207.096 345.04,213.908 L345.04,215.104 C345.04,220.876 342.908,223.268 339.268,223.268 Z M358.144,228 L365.476,228 L365.476,206.108 L371.196,206.108 L371.196,200.7 L365.476,200.7 L365.476,198.36 C365.476,195.552 366.88,194.304 369.584,194.304 C370.988,194.304 372.184,194.512 372.912,194.668 L372.912,189.988 C371.924,189.572 370,189.104 367.4,189.104 C361.992,189.104 358.144,191.704 358.144,197.58 L358.144,200.7 L354.504,200.7 L354.504,206.108 L358.144,206.108 L358.144,228 Z M54.62,284.52 C58.104,284.52 60.444,283.428 61.64,281.816 L61.952,281.816 L62.524,284 L68.556,284 L68.556,264.448 C68.556,258.572 64.656,256.232 58.208,256.232 C54.308,256.232 51.136,256.752 48.432,257.74 L48.432,262.68 C50.252,262.264 52.696,261.9 55.4,261.9 C59.716,261.9 61.276,262.628 61.276,266.008 L61.276,267.724 L55.4,268.504 C49.784,269.232 46.144,271.416 46.144,276.772 C46.144,282.024 49.68,284.52 54.62,284.52 Z M57.012,279.632 C54.828,279.632 53.268,278.644 53.268,276.148 C53.268,273.756 54.464,272.768 56.96,272.508 L61.276,272.092 L61.276,278.28 C60.444,279.06 58.728,279.632 57.012,279.632 Z M73.6,284 L80.932,284 L80.932,264.448 C82.596,263.512 84.884,262.888 87.328,262.888 C87.952,262.888 88.94,262.992 89.564,263.096 L89.564,256.648 C89.252,256.492 88.628,256.44 87.9,256.44 C85.04,256.44 82.388,257.896 80.932,259.924 L80.672,259.924 L80.672,256.7 L73.6,256.7 L73.6,284 Z M102.72,284.364 C105.424,284.364 107.14,283.792 108.232,283.22 L108.232,278.488 C107.348,278.696 106.204,278.852 105.268,278.852 C102.72,278.852 101.836,278.124 101.836,275.94 L101.836,262.056 L107.92,262.056 L107.92,256.7 L101.836,256.7 L101.836,250.252 L94.556,250.252 L94.556,256.7 L90.968,256.7 L90.968,262.056 L94.556,262.056 L94.556,276.98 C94.556,282.544 97.676,284.364 102.72,284.364 Z M112.132,284 L119.464,284 L119.464,256.7 L112.132,256.7 L112.132,284 Z M112.08,252.748 L119.516,252.748 L119.516,246.664 L112.08,246.664 L112.08,252.748 Z M136.78,284.52 C140.68,284.52 143.28,283.532 144.944,282.544 L144.944,277.344 C143.592,277.916 141.356,278.852 138.288,278.852 C133.348,278.852 131.06,276.408 131.06,270.584 L131.06,269.492 C131.06,264.344 133.764,261.9 138.028,261.9 C141.148,261.9 142.656,262.42 144.684,263.252 L144.684,257.792 C142.968,256.804 140.784,256.18 137.144,256.18 C129.032,256.18 123.468,260.756 123.468,270.168 L123.468,270.896 C123.468,279.892 128.304,284.52 136.78,284.52 Z M148.792,284 L156.124,284 L156.124,245.572 L148.792,245.572 L148.792,284 Z M174.012,284.52 C178.848,284.52 182.124,283.22 183.996,281.972 L183.996,277.24 C181.76,278.28 179.108,279.06 175.728,279.06 C170.788,279.06 168.084,277.448 167.564,272.3 L184.984,272.3 L184.984,269.804 C184.984,261.016 181.5,256.232 173.024,256.232 C165.536,256.232 160.128,261.068 160.128,269.96 L160.128,270.688 C160.128,279.476 164.756,284.52 174.012,284.52 Z M172.92,261.328 C176.144,261.328 177.808,263.044 177.808,267.724 L167.564,267.724 C167.98,262.68 170.476,261.328 172.92,261.328 Z M196.736,284.52 C204.016,284.52 207.812,281.504 207.812,275.784 C207.812,271 205.784,268.556 200.324,267.516 L197.776,266.996 C195.332,266.528 194.344,265.956 194.344,264.24 C194.344,262.42 195.8,261.536 198.816,261.536 C201.988,261.536 204.588,262.264 206.2,262.836 L206.2,257.688 C204.328,256.856 201.832,256.232 198.036,256.232 C190.86,256.232 187.48,259.508 187.48,264.708 C187.48,269.804 190.184,272.04 194.552,272.872 L197.1,273.34 C199.804,273.912 200.74,274.588 200.74,276.304 C200.74,278.124 199.284,279.164 195.696,279.164 C191.9,279.164 189.768,278.384 187.532,277.5 L187.532,282.648 C189.768,283.792 193.148,284.52 196.736,284.52 Z M231.992,284.624 C241.56,284.624 246.604,279.996 246.604,269.96 L246.604,269.284 C246.604,259.3 241.456,256.18 236.308,256.18 C232.772,256.18 230.328,257.168 228.404,258.572 L228.144,258.572 L228.144,245.572 L220.812,245.572 L220.812,282.856 C223.62,283.896 227.884,284.624 231.992,284.624 Z M232.408,279.268 C230.432,279.268 229.028,278.956 228.144,278.54 L228.144,263.148 C229.132,262.68 231.004,261.952 232.928,261.952 C237.088,261.952 239.064,263.72 239.064,269.96 L239.064,270.948 C239.064,277.604 235.996,279.268 232.408,279.268 Z M257.576,284.52 C261.06,284.52 263.4,283.428 264.596,281.816 L264.908,281.816 L265.48,284 L271.512,284 L271.512,264.448 C271.512,258.572 267.612,256.232 261.164,256.232 C257.264,256.232 254.092,256.752 251.388,257.74 L251.388,262.68 C253.208,262.264 255.652,261.9 258.356,261.9 C262.672,261.9 264.232,262.628 264.232,266.008 L264.232,267.724 L258.356,268.504 C252.74,269.232 249.1,271.416 249.1,276.772 C249.1,282.024 252.636,284.52 257.576,284.52 Z M259.968,279.632 C257.784,279.632 256.224,278.644 256.224,276.148 C256.224,273.756 257.42,272.768 259.916,272.508 L264.232,272.092 L264.232,278.28 C263.4,279.06 261.684,279.632 259.968,279.632 Z M284.46,284.52 C291.74,284.52 295.536,281.504 295.536,275.784 C295.536,271 293.508,268.556 288.048,267.516 L285.5,266.996 C283.056,266.528 282.068,265.956 282.068,264.24 C282.068,262.42 283.524,261.536 286.54,261.536 C289.712,261.536 292.312,262.264 293.924,262.836 L293.924,257.688 C292.052,256.856 289.556,256.232 285.76,256.232 C278.584,256.232 275.204,259.508 275.204,264.708 C275.204,269.804 277.908,272.04 282.276,272.872 L284.824,273.34 C287.528,273.912 288.464,274.588 288.464,276.304 C288.464,278.124 287.008,279.164 283.42,279.164 C279.624,279.164 277.492,278.384 275.256,277.5 L275.256,282.648 C277.492,283.792 280.872,284.52 284.46,284.52 Z M311.864,284.52 C316.7,284.52 319.976,283.22 321.848,281.972 L321.848,277.24 C319.612,278.28 316.96,279.06 313.58,279.06 C308.64,279.06 305.936,277.448 305.416,272.3 L322.836,272.3 L322.836,269.804 C322.836,261.016 319.352,256.232 310.876,256.232 C303.388,256.232 297.98,261.068 297.98,269.96 L297.98,270.688 C297.98,279.476 302.608,284.52 311.864,284.52 Z M310.772,261.328 C313.996,261.328 315.66,263.044 315.66,267.724 L305.416,267.724 C305.832,262.68 308.328,261.328 310.772,261.328 Z M336.408,284.52 C339.892,284.52 342.388,283.532 344.156,281.868 L344.416,281.868 L344.988,284 L351.228,284 L351.228,245.572 L343.948,245.572 L343.948,257.584 C342.804,256.96 340.776,256.18 337.76,256.18 C330.584,256.18 325.436,260.34 325.436,270.48 L325.436,271.156 C325.436,280.932 330.896,284.52 336.408,284.52 Z M339.112,279.008 C335.42,279.008 332.976,277.24 332.976,270.844 L332.976,269.856 C332.976,263.512 335.316,261.536 339.164,261.536 C341.244,261.536 343.064,262.056 343.948,262.732 L343.948,277.448 C342.96,278.176 341.348,279.008 339.112,279.008 Z M377.592,284.52 C385.392,284.52 391.008,279.684 391.008,270.584 L391.008,269.856 C391.008,261.12 386.224,256.18 377.644,256.18 C369.896,256.18 364.28,261.068 364.28,270.116 L364.28,270.896 C364.28,279.528 369.012,284.52 377.592,284.52 Z M377.696,279.268 C374.368,279.268 371.768,277.552 371.768,270.844 L371.768,269.648 C371.768,263.876 373.9,261.484 377.54,261.484 C380.92,261.484 383.468,263.096 383.468,269.908 L383.468,271.104 C383.468,276.876 381.336,279.268 377.696,279.268 Z M394.856,284 L402.188,284 L402.188,263.304 C403.644,262.68 405.724,262.056 407.544,262.056 C410.768,262.056 411.704,263.044 411.704,265.592 L411.704,284 L419.036,284 L419.036,263.72 C419.036,258.364 416.228,256.18 411.028,256.18 C407.596,256.18 404.476,257.324 402.188,259.092 L401.928,259.092 L401.928,256.7 L394.856,256.7 L394.856,284 Z M51.5,350.348 C56.856,350.348 59.56,348.164 61.432,342.86 L72.144,312.7 L65.176,312.7 L59.3,330.692 L59.144,330.692 L52.904,312.7 L45.208,312.7 L55.452,339.428 L54.62,341.612 C53.736,343.9 52.228,344.888 49.732,344.888 C48.796,344.888 47.756,344.732 46.924,344.576 L46.924,349.516 C47.86,349.984 49.888,350.348 51.5,350.348 Z M86.912,340.52 C94.712,340.52 100.328,335.684 100.328,326.584 L100.328,325.856 C100.328,317.12 95.544,312.18 86.964,312.18 C79.216,312.18 73.6,317.068 73.6,326.116 L73.6,326.896 C73.6,335.528 78.332,340.52 86.912,340.52 Z M87.016,335.268 C83.688,335.268 81.088,333.552 81.088,326.844 L81.088,325.648 C81.088,319.876 83.22,317.484 86.86,317.484 C90.24,317.484 92.788,319.096 92.788,325.908 L92.788,327.104 C92.788,332.876 90.656,335.268 87.016,335.268 Z M112.392,340.52 C115.824,340.52 118.372,339.376 120.712,337.608 L120.972,337.608 L121.544,340 L127.888,340 L127.888,312.7 L120.608,312.7 L120.608,333.396 C119.152,334.124 117.436,334.8 115.356,334.8 C112.34,334.8 111.352,333.76 111.352,331.108 L111.352,312.7 L104.072,312.7 L104.072,332.564 C104.072,338.024 107.14,340.52 112.392,340.52 Z M133.14,340 L140.472,340 L140.472,320.448 C142.136,319.512 144.424,318.888 146.868,318.888 C147.492,318.888 148.48,318.992 149.104,319.096 L149.104,312.648 C148.792,312.492 148.168,312.44 147.44,312.44 C144.58,312.44 141.928,313.896 140.472,315.924 L140.212,315.924 L140.212,312.7 L133.14,312.7 L133.14,340 Z M161.636,340 L168.968,340 L168.968,320.448 C170.632,319.512 172.92,318.888 175.364,318.888 C175.988,318.888 176.976,318.992 177.6,319.096 L177.6,312.648 C177.288,312.492 176.664,312.44 175.936,312.44 C173.076,312.44 170.424,313.896 168.968,315.924 L168.708,315.924 L168.708,312.7 L161.636,312.7 L161.636,340 Z M193.46,340.52 C198.296,340.52 201.572,339.22 203.444,337.972 L203.444,333.24 C201.208,334.28 198.556,335.06 195.176,335.06 C190.236,335.06 187.532,333.448 187.012,328.3 L204.432,328.3 L204.432,325.804 C204.432,317.016 200.948,312.232 192.472,312.232 C184.984,312.232 179.576,317.068 179.576,325.96 L179.576,326.688 C179.576,335.476 184.204,340.52 193.46,340.52 Z M192.368,317.328 C195.592,317.328 197.256,319.044 197.256,323.724 L187.012,323.724 C187.428,318.68 189.924,317.328 192.368,317.328 Z M215.3,340.52 C218.784,340.52 221.124,339.428 222.32,337.816 L222.632,337.816 L223.204,340 L229.236,340 L229.236,320.448 C229.236,314.572 225.336,312.232 218.888,312.232 C214.988,312.232 211.816,312.752 209.112,313.74 L209.112,318.68 C210.932,318.264 213.376,317.9 216.08,317.9 C220.396,317.9 221.956,318.628 221.956,322.008 L221.956,323.724 L216.08,324.504 C210.464,325.232 206.824,327.416 206.824,332.772 C206.824,338.024 210.36,340.52 215.3,340.52 Z M217.692,335.632 C215.508,335.632 213.948,334.644 213.948,332.148 C213.948,329.756 215.144,328.768 217.64,328.508 L221.956,328.092 L221.956,334.28 C221.124,335.06 219.408,335.632 217.692,335.632 Z M244.004,340.52 C247.488,340.52 249.984,339.532 251.752,337.868 L252.012,337.868 L252.584,340 L258.824,340 L258.824,301.572 L251.544,301.572 L251.544,313.584 C250.4,312.96 248.372,312.18 245.356,312.18 C238.18,312.18 233.032,316.34 233.032,326.48 L233.032,327.156 C233.032,336.932 238.492,340.52 244.004,340.52 Z M246.708,335.008 C243.016,335.008 240.572,333.24 240.572,326.844 L240.572,325.856 C240.572,319.512 242.912,317.536 246.76,317.536 C248.84,317.536 250.66,318.056 251.544,318.732 L251.544,333.448 C250.556,334.176 248.944,335.008 246.708,335.008 Z M264.18,340 L271.512,340 L271.512,312.7 L264.18,312.7 L264.18,340 Z M264.128,308.748 L271.564,308.748 L271.564,302.664 L264.128,302.664 L264.128,308.748 Z M276.868,340 L284.2,340 L284.2,319.304 C285.656,318.68 287.736,318.056 289.556,318.056 C292.78,318.056 293.716,319.044 293.716,321.592 L293.716,340 L301.048,340 L301.048,319.72 C301.048,314.364 298.24,312.18 293.04,312.18 C289.608,312.18 286.488,313.324 284.2,315.092 L283.94,315.092 L283.94,312.7 L276.868,312.7 L276.868,340 Z M316.596,350.4 C326.372,350.4 330.74,346.292 330.74,340.728 C330.74,335.32 327.256,333.24 321.744,333.24 L314.1,333.24 C312.488,333.24 311.864,332.616 311.864,331.368 C311.864,330.744 312.176,330.12 312.592,329.652 C313.892,329.964 315.244,330.12 316.804,330.12 C323.356,330.12 327.932,327.26 327.932,321.384 L327.932,320.968 C327.932,319.408 327.516,318.212 326.684,317.224 L330.636,317.224 L330.636,312.7 L321.38,312.7 C320.028,312.388 318.468,312.232 316.856,312.232 C310.044,312.232 305.572,315.352 305.572,321.176 L305.572,321.592 C305.572,324.764 306.872,327 309.108,328.352 C307.028,329.912 305.832,331.732 305.832,333.864 C305.832,335.84 307.028,337.192 308.692,337.868 L308.692,338.128 C305.832,339.064 303.596,340.832 303.596,343.692 C303.596,347.748 307.652,350.4 316.596,350.4 Z M316.492,345.564 C312.072,345.564 310.564,344.472 310.564,342.496 C310.564,340.884 311.552,339.896 312.956,339.428 L319.508,339.428 C322.576,339.428 323.408,340 323.408,341.976 C323.408,344.108 321.744,345.564 316.492,345.564 Z M316.804,325.648 C314.1,325.648 312.54,324.452 312.54,321.488 L312.54,320.864 C312.54,318.056 314.048,316.704 316.804,316.704 C319.404,316.704 321.016,317.796 321.016,320.916 L321.016,321.54 C321.016,324.452 319.508,325.648 316.804,325.648 Z M47.6,396 L54.932,396 L54.932,375.304 C56.388,374.68 58.468,374.056 60.288,374.056 C63.512,374.056 64.448,375.044 64.448,377.592 L64.448,396 L71.78,396 L71.78,375.72 C71.78,370.364 68.972,368.18 63.772,368.18 C60.34,368.18 57.324,369.324 55.192,370.936 L54.932,370.936 L54.932,357.572 L47.6,357.572 L47.6,396 Z M76.98,396 L84.312,396 L84.312,368.7 L76.98,368.7 L76.98,396 Z M76.928,364.748 L84.364,364.748 L84.364,358.664 L76.928,358.664 L76.928,364.748 Z M97.572,396.52 C104.852,396.52 108.648,393.504 108.648,387.784 C108.648,383 106.62,380.556 101.16,379.516 L98.612,378.996 C96.168,378.528 95.18,377.956 95.18,376.24 C95.18,374.42 96.636,373.536 99.652,373.536 C102.824,373.536 105.424,374.264 107.036,374.836 L107.036,369.688 C105.164,368.856 102.668,368.232 98.872,368.232 C91.696,368.232 88.316,371.508 88.316,376.708 C88.316,381.804 91.02,384.04 95.388,384.872 L97.936,385.34 C100.64,385.912 101.576,386.588 101.576,388.304 C101.576,390.124 100.12,391.164 96.532,391.164 C92.736,391.164 90.604,390.384 88.368,389.5 L88.368,394.648 C90.604,395.792 93.984,396.52 97.572,396.52 Z M122.272,396.364 C124.976,396.364 126.692,395.792 127.784,395.22 L127.784,390.488 C126.9,390.696 125.756,390.852 124.82,390.852 C122.272,390.852 121.388,390.124 121.388,387.94 L121.388,374.056 L127.472,374.056 L127.472,368.7 L121.388,368.7 L121.388,362.252 L114.108,362.252 L114.108,368.7 L110.52,368.7 L110.52,374.056 L114.108,374.056 L114.108,388.98 C114.108,394.544 117.228,396.364 122.272,396.364 Z M143.488,396.52 C151.288,396.52 156.904,391.684 156.904,382.584 L156.904,381.856 C156.904,373.12 152.12,368.18 143.54,368.18 C135.792,368.18 130.176,373.068 130.176,382.116 L130.176,382.896 C130.176,391.528 134.908,396.52 143.488,396.52 Z M143.592,391.268 C140.264,391.268 137.664,389.552 137.664,382.844 L137.664,381.648 C137.664,375.876 139.796,373.484 143.436,373.484 C146.816,373.484 149.364,375.096 149.364,381.908 L149.364,383.104 C149.364,388.876 147.232,391.268 143.592,391.268 Z M160.752,396 L168.084,396 L168.084,376.448 C169.748,375.512 172.036,374.888 174.48,374.888 C175.104,374.888 176.092,374.992 176.716,375.096 L176.716,368.648 C176.404,368.492 175.78,368.44 175.052,368.44 C172.192,368.44 169.54,369.896 168.084,371.924 L167.824,371.924 L167.824,368.7 L160.752,368.7 L160.752,396 Z M183.944,406.348 C189.3,406.348 192.004,404.164 193.876,398.86 L204.588,368.7 L197.62,368.7 L191.744,386.692 L191.588,386.692 L185.348,368.7 L177.652,368.7 L187.896,395.428 L187.064,397.612 C186.18,399.9 184.672,400.888 182.176,400.888 C181.24,400.888 180.2,400.732 179.368,400.576 L179.368,405.516 C180.304,405.984 182.332,406.348 183.944,406.348 Z" id="A-daily-dose-of-arti"></path>
            </g>
        </g>
    </g>
</svg>