<?xml version="1.0" encoding="UTF-8" standalone="no"?>
<svg width="717px" height="38px" viewBox="0 0 717 38" version="1.1" xmlns="http://www.w3.org/2000/svg" xmlns:xlink="http://www.w3.org/1999/xlink">
    <!-- Generator: Sketch 41 (35326) - http://www.bohemiancoding.com/sketch -->
    <title>A daily dose of arti</title>
    <desc>Created with Sketch.</desc>
    <defs></defs>
    <g id="Page-1" stroke="none" stroke-width="1" fill="none" fill-rule="evenodd">
        <g id="Desktop_five_a_day_article" transform="translate(-621.000000, -7556.000000)" fill="#333333">
            <g id="5-a-day---bottom" transform="translate(-5.000000, 7479.000000)">
                <path d="M626.12,107 L631.68,107 L633.84,100.6 L643.64,100.6 L645.84,107 L652.12,107 L642.36,79.28 L635.96,79.28 L626.12,107 Z M638.6,86.04 L638.76,86.04 L642.24,96.36 L635.16,96.36 L638.6,86.04 Z M668.8,107.4 C671.48,107.4 673.4,106.64 674.76,105.36 L674.96,105.36 L675.4,107 L680.2,107 L680.2,77.44 L674.6,77.44 L674.6,86.68 C673.72,86.2 672.16,85.6 669.84,85.6 C664.32,85.6 660.36,88.8 660.36,96.6 L660.36,97.12 C660.36,104.64 664.56,107.4 668.8,107.4 Z M670.88,103.16 C668.04,103.16 666.16,101.8 666.16,96.88 L666.16,96.12 C666.16,91.24 667.96,89.72 670.92,89.72 C672.52,89.72 673.92,90.12 674.6,90.64 L674.6,101.96 C673.84,102.52 672.6,103.16 670.88,103.16 Z M689.6,107.4 C692.28,107.4 694.08,106.56 695,105.32 L695.24,105.32 L695.68,107 L700.32,107 L700.32,91.96 C700.32,87.44 697.32,85.64 692.36,85.64 C689.36,85.64 686.92,86.04 684.84,86.8 L684.84,90.6 C686.24,90.28 688.12,90 690.2,90 C693.52,90 694.72,90.56 694.72,93.16 L694.72,94.48 L690.2,95.08 C685.88,95.64 683.08,97.32 683.08,101.44 C683.08,105.48 685.8,107.4 689.6,107.4 Z M691.44,103.64 C689.76,103.64 688.56,102.88 688.56,100.96 C688.56,99.12 689.48,98.36 691.4,98.16 L694.72,97.84 L694.72,102.6 C694.08,103.2 692.76,103.64 691.44,103.64 Z M704.32,107 L709.96,107 L709.96,86 L704.32,86 L704.32,107 Z M704.28,82.96 L710,82.96 L710,78.28 L704.28,78.28 L704.28,82.96 Z M714.2,107 L719.84,107 L719.84,77.44 L714.2,77.44 L714.2,107 Z M726.96,114.96 C731.08,114.96 733.16,113.28 734.6,109.2 L742.84,86 L737.48,86 L732.96,99.84 L732.84,99.84 L728.04,86 L722.12,86 L730,106.56 L729.36,108.24 C728.68,110 727.52,110.76 725.6,110.76 C724.88,110.76 724.08,110.64 723.44,110.52 L723.44,114.32 C724.16,114.68 725.72,114.96 726.96,114.96 Z M759.56,107.4 C762.24,107.4 764.16,106.64 765.52,105.36 L765.72,105.36 L766.16,107 L770.96,107 L770.96,77.44 L765.36,77.44 L765.36,86.68 C764.48,86.2 762.92,85.6 760.6,85.6 C755.08,85.6 751.12,88.8 751.12,96.6 L751.12,97.12 C751.12,104.64 755.32,107.4 759.56,107.4 Z M761.64,103.16 C758.8,103.16 756.92,101.8 756.92,96.88 L756.92,96.12 C756.92,91.24 758.72,89.72 761.68,89.72 C763.28,89.72 764.68,90.12 765.36,90.64 L765.36,101.96 C764.6,102.52 763.36,103.16 761.64,103.16 Z M784.16,107.4 C790.16,107.4 794.48,103.68 794.48,96.68 L794.48,96.12 C794.48,89.4 790.8,85.6 784.2,85.6 C778.24,85.6 773.92,89.36 773.92,96.32 L773.92,96.92 C773.92,103.56 777.56,107.4 784.16,107.4 Z M784.24,103.36 C781.68,103.36 779.68,102.04 779.68,96.88 L779.68,95.96 C779.68,91.52 781.32,89.68 784.12,89.68 C786.72,89.68 788.68,90.92 788.68,96.16 L788.68,97.08 C788.68,101.52 787.04,103.36 784.24,103.36 Z M803.52,107.4 C809.12,107.4 812.04,105.08 812.04,100.68 C812.04,97 810.48,95.12 806.28,94.32 L804.32,93.92 C802.44,93.56 801.68,93.12 801.68,91.8 C801.68,90.4 802.8,89.72 805.12,89.72 C807.56,89.72 809.56,90.28 810.8,90.72 L810.8,86.76 C809.36,86.12 807.44,85.64 804.52,85.64 C799,85.64 796.4,88.16 796.4,92.16 C796.4,96.08 798.48,97.8 801.84,98.44 L803.8,98.8 C805.88,99.24 806.6,99.76 806.6,101.08 C806.6,102.48 805.48,103.28 802.72,103.28 C799.8,103.28 798.16,102.68 796.44,102 L796.44,105.96 C798.16,106.84 800.76,107.4 803.52,107.4 Z M824.6,107.4 C828.32,107.4 830.84,106.4 832.28,105.44 L832.28,101.8 C830.56,102.6 828.52,103.2 825.92,103.2 C822.12,103.2 820.04,101.96 819.64,98 L833.04,98 L833.04,96.08 C833.04,89.32 830.36,85.64 823.84,85.64 C818.08,85.64 813.92,89.36 813.92,96.2 L813.92,96.76 C813.92,103.52 817.48,107.4 824.6,107.4 Z M823.76,89.56 C826.24,89.56 827.52,90.88 827.52,94.48 L819.64,94.48 C819.96,90.6 821.88,89.56 823.76,89.56 Z M852.28,107.4 C858.28,107.4 862.6,103.68 862.6,96.68 L862.6,96.12 C862.6,89.4 858.92,85.6 852.32,85.6 C846.36,85.6 842.04,89.36 842.04,96.32 L842.04,96.92 C842.04,103.56 845.68,107.4 852.28,107.4 Z M852.36,103.36 C849.8,103.36 847.8,102.04 847.8,96.88 L847.8,95.96 C847.8,91.52 849.44,89.68 852.24,89.68 C854.84,89.68 856.8,90.92 856.8,96.16 L856.8,97.08 C856.8,101.52 855.16,103.36 852.36,103.36 Z M866.88,107 L872.52,107 L872.52,90.16 L876.92,90.16 L876.92,86 L872.52,86 L872.52,84.2 C872.52,82.04 873.6,81.08 875.68,81.08 C876.76,81.08 877.68,81.24 878.24,81.36 L878.24,77.76 C877.48,77.44 876,77.08 874,77.08 C869.84,77.08 866.88,79.08 866.88,83.6 L866.88,86 L864.08,86 L864.08,90.16 L866.88,90.16 L866.88,107 Z M891.92,107.4 C894.6,107.4 896.4,106.56 897.32,105.32 L897.56,105.32 L898,107 L902.64,107 L902.64,91.96 C902.64,87.44 899.64,85.64 894.68,85.64 C891.68,85.64 889.24,86.04 887.16,86.8 L887.16,90.6 C888.56,90.28 890.44,90 892.52,90 C895.84,90 897.04,90.56 897.04,93.16 L897.04,94.48 L892.52,95.08 C888.2,95.64 885.4,97.32 885.4,101.44 C885.4,105.48 888.12,107.4 891.92,107.4 Z M893.76,103.64 C892.08,103.64 890.88,102.88 890.88,100.96 C890.88,99.12 891.8,98.36 893.72,98.16 L897.04,97.84 L897.04,102.6 C896.4,103.2 895.08,103.64 893.76,103.64 Z M906.52,107 L912.16,107 L912.16,91.96 C913.44,91.24 915.2,90.76 917.08,90.76 C917.56,90.76 918.32,90.84 918.8,90.92 L918.8,85.96 C918.56,85.84 918.08,85.8 917.52,85.8 C915.32,85.8 913.28,86.92 912.16,88.48 L911.96,88.48 L911.96,86 L906.52,86 L906.52,107 Z M928.92,107.28 C931,107.28 932.32,106.84 933.16,106.4 L933.16,102.76 C932.48,102.92 931.6,103.04 930.88,103.04 C928.92,103.04 928.24,102.48 928.24,100.8 L928.24,90.12 L932.92,90.12 L932.92,86 L928.24,86 L928.24,81.04 L922.64,81.04 L922.64,86 L919.88,86 L919.88,90.12 L922.64,90.12 L922.64,101.6 C922.64,105.88 925.04,107.28 928.92,107.28 Z M936.16,107 L941.8,107 L941.8,86 L936.16,86 L936.16,107 Z M936.12,82.96 L941.84,82.96 L941.84,78.28 L936.12,78.28 L936.12,82.96 Z M955.12,107.4 C958.12,107.4 960.12,106.64 961.4,105.88 L961.4,101.88 C960.36,102.32 958.64,103.04 956.28,103.04 C952.48,103.04 950.72,101.16 950.72,96.68 L950.72,95.84 C950.72,91.88 952.8,90 956.08,90 C958.48,90 959.64,90.4 961.2,91.04 L961.2,86.84 C959.88,86.08 958.2,85.6 955.4,85.6 C949.16,85.6 944.88,89.12 944.88,96.36 L944.88,96.92 C944.88,103.84 948.6,107.4 955.12,107.4 Z M964.36,107 L970,107 L970,77.44 L964.36,77.44 L964.36,107 Z M983.76,107.4 C987.48,107.4 990,106.4 991.44,105.44 L991.44,101.8 C989.72,102.6 987.68,103.2 985.08,103.2 C981.28,103.2 979.2,101.96 978.8,98 L992.2,98 L992.2,96.08 C992.2,89.32 989.52,85.64 983,85.64 C977.24,85.64 973.08,89.36 973.08,96.2 L973.08,96.76 C973.08,103.52 976.64,107.4 983.76,107.4 Z M982.92,89.56 C985.4,89.56 986.68,90.88 986.68,94.48 L978.8,94.48 C979.12,90.6 981.04,89.56 982.92,89.56 Z M1001.24,107.4 C1006.84,107.4 1009.76,105.08 1009.76,100.68 C1009.76,97 1008.2,95.12 1004,94.32 L1002.04,93.92 C1000.16,93.56 999.4,93.12 999.4,91.8 C999.4,90.4 1000.52,89.72 1002.84,89.72 C1005.28,89.72 1007.28,90.28 1008.52,90.72 L1008.52,86.76 C1007.08,86.12 1005.16,85.64 1002.24,85.64 C996.72,85.64 994.12,88.16 994.12,92.16 C994.12,96.08 996.2,97.8 999.56,98.44 L1001.52,98.8 C1003.6,99.24 1004.32,99.76 1004.32,101.08 C1004.32,102.48 1003.2,103.28 1000.44,103.28 C997.52,103.28 995.88,102.68 994.16,102 L994.16,105.96 C995.88,106.84 998.48,107.4 1001.24,107.4 Z M1028.96,107.4 C1031.96,107.4 1033.96,106.64 1035.24,105.88 L1035.24,101.88 C1034.2,102.32 1032.48,103.04 1030.12,103.04 C1026.32,103.04 1024.56,101.16 1024.56,96.68 L1024.56,95.84 C1024.56,91.88 1026.64,90 1029.92,90 C1032.32,90 1033.48,90.4 1035.04,91.04 L1035.04,86.84 C1033.72,86.08 1032.04,85.6 1029.24,85.6 C1023,85.6 1018.72,89.12 1018.72,96.36 L1018.72,96.92 C1018.72,103.84 1022.44,107.4 1028.96,107.4 Z M1038.08,107 L1043.72,107 L1043.72,91.08 C1044.84,90.6 1046.44,90.12 1047.84,90.12 C1050.32,90.12 1051.04,90.88 1051.04,92.84 L1051.04,107 L1056.68,107 L1056.68,91.4 C1056.68,87.28 1054.52,85.6 1050.52,85.6 C1047.88,85.6 1045.56,86.48 1043.92,87.72 L1043.72,87.72 L1043.72,77.44 L1038.08,77.44 L1038.08,107 Z M1069.76,107.4 C1075.76,107.4 1080.08,103.68 1080.08,96.68 L1080.08,96.12 C1080.08,89.4 1076.4,85.6 1069.8,85.6 C1063.84,85.6 1059.52,89.36 1059.52,96.32 L1059.52,96.92 C1059.52,103.56 1063.16,107.4 1069.76,107.4 Z M1069.84,103.36 C1067.28,103.36 1065.28,102.04 1065.28,96.88 L1065.28,95.96 C1065.28,91.52 1066.92,89.68 1069.72,89.68 C1072.32,89.68 1074.28,90.92 1074.28,96.16 L1074.28,97.08 C1074.28,101.52 1072.64,103.36 1069.84,103.36 Z M1089.12,107.4 C1094.72,107.4 1097.64,105.08 1097.64,100.68 C1097.64,97 1096.08,95.12 1091.88,94.32 L1089.92,93.92 C1088.04,93.56 1087.28,93.12 1087.28,91.8 C1087.28,90.4 1088.4,89.72 1090.72,89.72 C1093.16,89.72 1095.16,90.28 1096.4,90.72 L1096.4,86.76 C1094.96,86.12 1093.04,85.64 1090.12,85.64 C1084.6,85.64 1082,88.16 1082,92.16 C1082,96.08 1084.08,97.8 1087.44,98.44 L1089.4,98.8 C1091.48,99.24 1092.2,99.76 1092.2,101.08 C1092.2,102.48 1091.08,103.28 1088.32,103.28 C1085.4,103.28 1083.76,102.68 1082.04,102 L1082.04,105.96 C1083.76,106.84 1086.36,107.4 1089.12,107.4 Z M1110.2,107.4 C1113.92,107.4 1116.44,106.4 1117.88,105.44 L1117.88,101.8 C1116.16,102.6 1114.12,103.2 1111.52,103.2 C1107.72,103.2 1105.64,101.96 1105.24,98 L1118.64,98 L1118.64,96.08 C1118.64,89.32 1115.96,85.64 1109.44,85.64 C1103.68,85.64 1099.52,89.36 1099.52,96.2 L1099.52,96.76 C1099.52,103.52 1103.08,107.4 1110.2,107.4 Z M1109.36,89.56 C1111.84,89.56 1113.12,90.88 1113.12,94.48 L1105.24,94.48 C1105.56,90.6 1107.48,89.56 1109.36,89.56 Z M1121.6,107 L1127.24,107 L1127.24,91.08 C1128.36,90.6 1129.96,90.12 1131.36,90.12 C1133.84,90.12 1134.56,90.88 1134.56,92.84 L1134.56,107 L1140.2,107 L1140.2,91.4 C1140.2,87.28 1138.04,85.6 1134.04,85.6 C1131.4,85.6 1129,86.48 1127.24,87.84 L1127.04,87.84 L1127.04,86 L1121.6,86 L1121.6,107 Z M1150.12,114.92 C1155,114.92 1156.92,112.28 1156.92,108.48 L1156.92,86 L1151.28,86 L1151.28,108 C1151.28,109.96 1150.24,110.8 1148.36,110.8 C1147.72,110.8 1147.04,110.68 1146.48,110.6 L1146.48,114.24 C1147.28,114.64 1148.44,114.92 1150.12,114.92 Z M1151.24,82.96 L1156.96,82.96 L1156.96,78.28 L1151.24,78.28 L1151.24,82.96 Z M1167.36,107.4 C1170,107.4 1171.96,106.52 1173.76,105.16 L1173.96,105.16 L1174.4,107 L1179.28,107 L1179.28,86 L1173.68,86 L1173.68,101.92 C1172.56,102.48 1171.24,103 1169.64,103 C1167.32,103 1166.56,102.2 1166.56,100.16 L1166.56,86 L1160.96,86 L1160.96,101.28 C1160.96,105.48 1163.32,107.4 1167.36,107.4 Z M1189.4,107.4 C1195,107.4 1197.92,105.08 1197.92,100.68 C1197.92,97 1196.36,95.12 1192.16,94.32 L1190.2,93.92 C1188.32,93.56 1187.56,93.12 1187.56,91.8 C1187.56,90.4 1188.68,89.72 1191,89.72 C1193.44,89.72 1195.44,90.28 1196.68,90.72 L1196.68,86.76 C1195.24,86.12 1193.32,85.64 1190.4,85.64 C1184.88,85.64 1182.28,88.16 1182.28,92.16 C1182.28,96.08 1184.36,97.8 1187.72,98.44 L1189.68,98.8 C1191.76,99.24 1192.48,99.76 1192.48,101.08 C1192.48,102.48 1191.36,103.28 1188.6,103.28 C1185.68,103.28 1184.04,102.68 1182.32,102 L1182.32,105.96 C1184.04,106.84 1186.64,107.4 1189.4,107.4 Z M1208.4,107.28 C1210.48,107.28 1211.8,106.84 1212.64,106.4 L1212.64,102.76 C1211.96,102.92 1211.08,103.04 1210.36,103.04 C1208.4,103.04 1207.72,102.48 1207.72,100.8 L1207.72,90.12 L1212.4,90.12 L1212.4,86 L1207.72,86 L1207.72,81.04 L1202.12,81.04 L1202.12,86 L1199.36,86 L1199.36,90.12 L1202.12,90.12 L1202.12,101.6 C1202.12,105.88 1204.52,107.28 1208.4,107.28 Z M1223.92,107 L1229.56,107 L1229.56,90.16 L1233.96,90.16 L1233.96,86 L1229.56,86 L1229.56,84.2 C1229.56,82.04 1230.64,81.08 1232.72,81.08 C1233.8,81.08 1234.72,81.24 1235.28,81.36 L1235.28,77.76 C1234.52,77.44 1233.04,77.08 1231.04,77.08 C1226.88,77.08 1223.92,79.08 1223.92,83.6 L1223.92,86 L1221.12,86 L1221.12,90.16 L1223.92,90.16 L1223.92,107 Z M1245.68,107.4 C1251.68,107.4 1256,103.68 1256,96.68 L1256,96.12 C1256,89.4 1252.32,85.6 1245.72,85.6 C1239.76,85.6 1235.44,89.36 1235.44,96.32 L1235.44,96.92 C1235.44,103.56 1239.08,107.4 1245.68,107.4 Z M1245.76,103.36 C1243.2,103.36 1241.2,102.04 1241.2,96.88 L1241.2,95.96 C1241.2,91.52 1242.84,89.68 1245.64,89.68 C1248.24,89.68 1250.2,90.92 1250.2,96.16 L1250.2,97.08 C1250.2,101.52 1248.56,103.36 1245.76,103.36 Z M1258.96,107 L1264.6,107 L1264.6,91.96 C1265.88,91.24 1267.64,90.76 1269.52,90.76 C1270,90.76 1270.76,90.84 1271.24,90.92 L1271.24,85.96 C1271,85.84 1270.52,85.8 1269.96,85.8 C1267.76,85.8 1265.72,86.92 1264.6,88.48 L1264.4,88.48 L1264.4,86 L1258.96,86 L1258.96,107 Z M1283.88,114.96 C1288,114.96 1290.08,113.28 1291.52,109.2 L1299.76,86 L1294.4,86 L1289.88,99.84 L1289.76,99.84 L1284.96,86 L1279.04,86 L1286.92,106.56 L1286.28,108.24 C1285.6,110 1284.44,110.76 1282.52,110.76 C1281.8,110.76 1281,110.64 1280.36,110.52 L1280.36,114.32 C1281.08,114.68 1282.64,114.96 1283.88,114.96 Z M1311.12,107.4 C1317.12,107.4 1321.44,103.68 1321.44,96.68 L1321.44,96.12 C1321.44,89.4 1317.76,85.6 1311.16,85.6 C1305.2,85.6 1300.88,89.36 1300.88,96.32 L1300.88,96.92 C1300.88,103.56 1304.52,107.4 1311.12,107.4 Z M1311.2,103.36 C1308.64,103.36 1306.64,102.04 1306.64,96.88 L1306.64,95.96 C1306.64,91.52 1308.28,89.68 1311.08,89.68 C1313.68,89.68 1315.64,90.92 1315.64,96.16 L1315.64,97.08 C1315.64,101.52 1314,103.36 1311.2,103.36 Z M1330.72,107.4 C1333.36,107.4 1335.32,106.52 1337.12,105.16 L1337.32,105.16 L1337.76,107 L1342.64,107 L1342.64,86 L1337.04,86 L1337.04,101.92 C1335.92,102.48 1334.6,103 1333,103 C1330.68,103 1329.92,102.2 1329.92,100.16 L1329.92,86 L1324.32,86 L1324.32,101.28 C1324.32,105.48 1326.68,107.4 1330.72,107.4 Z" id="A-daily-dose-of-arti"></path>
            </g>
        </g>
    </g>
</svg>